REM DIRINDEX 1\2,1\4,1\3\5,1\3\6,1\3\7
REM DIRNAME folder01,folder02,folder03,folder04,folder05,folder06,folder07
TITLE ""
FILE "CD2Track03.mp3" MP3
  TRACK 01 AUDIO
    TITLE "0:"
    INDEX 01 00:00:00
  TRACK 02 AUDIO
    TITLE "5:cjc082_1337"
    INDEX 01 00:00:21
  TRACK 03 AUDIO
    TITLE "0:"
    INDEX 01 00:01:32
  TRACK 04 AUDIO
    TITLE "6:cjc082_1338"
    INDEX 01 00:02:08
  TRACK 05 AUDIO
    TITLE "0:"
    INDEX 01 00:04:60
  TRACK 06 AUDIO
    TITLE "5:cjc082_1339"
    INDEX 01 00:05:32
  TRACK 07 AUDIO
    TITLE "0:"
    INDEX 01 00:06:35
  TRACK 08 AUDIO
    TITLE "6:cjc082_1340"
    INDEX 01 00:07:11
  TRACK 09 AUDIO
    TITLE "0:"
    INDEX 01 00:09:26
  TRACK 10 AUDIO
    TITLE "5:cjc082_1341"
    INDEX 01 00:09:73
  TRACK 11 AUDIO
    TITLE "0:"
    INDEX 01 00:11:15
  TRACK 12 AUDIO
    TITLE "6:cjc082_1342"
    INDEX 01 00:11:64
  TRACK 13 AUDIO
    TITLE "0:"
    INDEX 01 00:13:22
  TRACK 14 AUDIO
    TITLE "5:cjc082_1343"
    INDEX 01 00:13:69
  TRACK 15 AUDIO
    TITLE "0:"
    INDEX 01 00:15:19
  TRACK 16 AUDIO
    TITLE "6:cjc082_1344"
    INDEX 01 00:15:68
  TRACK 17 AUDIO
    TITLE "0:"
    INDEX 01 00:17:35
  TRACK 18 AUDIO
    TITLE "5:cjc082_1345"
    INDEX 01 00:18:05
  TRACK 19 AUDIO
    TITLE "0:"
    INDEX 01 00:19:11
  TRACK 20 AUDIO
    TITLE "6:cjc082_1346"
    INDEX 01 00:19:63
  TRACK 21 AUDIO
    TITLE "0:"
    INDEX 01 00:22:27
  TRACK 22 AUDIO
    TITLE "5:cjc082_1347"
    INDEX 01 00:23:03
  TRACK 23 AUDIO
    TITLE "0:"
    INDEX 01 00:24:25
  TRACK 24 AUDIO
    TITLE "6:cjc082_1348"
    INDEX 01 00:24:74
  TRACK 25 AUDIO
    TITLE "0:"
    INDEX 01 00:29:52
  TRACK 26 AUDIO
    TITLE "5:cjc082_1349"
    INDEX 01 00:30:20
  TRACK 27 AUDIO
    TITLE "0:"
    INDEX 01 00:31:27
  TRACK 28 AUDIO
    TITLE "6:cjc082_1350"
    INDEX 01 00:32:01
  TRACK 29 AUDIO
    TITLE "0:"
    INDEX 01 00:33:30
  TRACK 30 AUDIO
    TITLE "5:cjc082_1351"
    INDEX 01 00:33:73
  TRACK 31 AUDIO
    TITLE "0:"
    INDEX 01 00:35:25
  TRACK 32 AUDIO
    TITLE "6:cjc082_1352"
    INDEX 01 00:35:70
  TRACK 33 AUDIO
    TITLE "0:"
    INDEX 01 00:37:22
  TRACK 34 AUDIO
    TITLE "5:cjc082_1353"
    INDEX 01 00:37:65
  TRACK 35 AUDIO
    TITLE "0:"
    INDEX 01 00:39:21
  TRACK 36 AUDIO
    TITLE "6:cjc082_1354"
    INDEX 01 00:39:64
  TRACK 37 AUDIO
    TITLE "0:"
    INDEX 01 00:42:21
  TRACK 38 AUDIO
    TITLE "5:cjc082_1355"
    INDEX 01 00:42:66
  TRACK 39 AUDIO
    TITLE "0:"
    INDEX 01 00:44:54
  TRACK 40 AUDIO
    TITLE "6:cjc082_1356"
    INDEX 01 00:45:28
  TRACK 41 AUDIO
    TITLE "0:"
    INDEX 01 00:46:43
  TRACK 42 AUDIO
    TITLE "5:cjc082_1357"
    INDEX 01 00:47:17
  TRACK 43 AUDIO
    TITLE "0:"
    INDEX 01 00:48:51
  TRACK 44 AUDIO
    TITLE "6:cjc082_1358"
    INDEX 01 00:49:23
  TRACK 45 AUDIO
    TITLE "0:"
    INDEX 01 00:50:31
  TRACK 46 AUDIO
    TITLE "5:cjc082_1359"
    INDEX 01 00:51:03
  TRACK 47 AUDIO
    TITLE "0:"
    INDEX 01 00:52:20
  TRACK 48 AUDIO
    TITLE "6:cjc082_1360"
    INDEX 01 00:52:61
  TRACK 49 AUDIO
    TITLE "0:"
    INDEX 01 00:53:66
  TRACK 50 AUDIO
    TITLE "5:cjc082_1361"
    INDEX 01 00:54:38
  TRACK 51 AUDIO
    TITLE "0:"
    INDEX 01 00:55:48
  TRACK 52 AUDIO
    TITLE "6:cjc082_1362"
    INDEX 01 00:56:20
  TRACK 53 AUDIO
    TITLE "0:"
    INDEX 01 00:57:41
  TRACK 54 AUDIO
    TITLE "5:cjc082_1363"
    INDEX 01 00:58:09
  TRACK 55 AUDIO
    TITLE "0:"
    INDEX 01 00:59:24
  TRACK 56 AUDIO
    TITLE "6:cjc082_1364"
    INDEX 01 00:59:69
  TRACK 57 AUDIO
    TITLE "0:"
    INDEX 01 01:03:35
  TRACK 58 AUDIO
    TITLE "5:cjc082_1365"
    INDEX 01 01:04:05
  TRACK 59 AUDIO
    TITLE "0:"
    INDEX 01 01:05:38
  TRACK 60 AUDIO
    TITLE "6:cjc082_1366"
    INDEX 01 01:06:10
  TRACK 61 AUDIO
    TITLE "0:"
    INDEX 01 01:07:45
  TRACK 62 AUDIO
    TITLE "7:cjc082_1367"
    INDEX 01 01:09:10
  TRACK 63 AUDIO
    TITLE "0:"
    INDEX 01 01:19:36
